<svg width="29" height="29" viewBox="0 0 29 29" fill="none" xmlns="http://www.w3.org/2000/svg">
<path fill-rule="evenodd" clip-rule="evenodd" d="M14.5 0C22.4953 0 29 6.5047 29 14.5C29 22.4953 22.4953 29 14.5 29C6.5047 29 0 22.4953 0 14.5C0 6.5047 6.5047 0 14.5 0ZM14.5 2.175C7.70385 2.175 2.175 7.70385 2.175 14.5C2.175 21.2962 7.70385 26.825 14.5 26.825C21.2962 26.825 26.825 21.2962 26.825 14.5C26.825 7.70385 21.2962 2.175 14.5 2.175ZM14.0087 7.38833C14.6105 7.38833 15.0962 7.87553 15.0962 8.47583V14.8877L20.0335 17.8312C20.5482 18.1401 20.7179 18.8071 20.4105 19.3233C20.206 19.664 19.845 19.854 19.4752 19.854C19.2853 19.854 19.0939 19.8047 18.9184 19.7017L13.4519 16.4407C13.1242 16.2435 12.9212 15.8882 12.9212 15.5054V8.47583C12.9212 7.87553 13.4084 7.38833 14.0087 7.38833Z" fill="#006747"/>
</svg>
