<svg width="40" height="40" viewBox="0 0 40 40" fill="none" xmlns="http://www.w3.org/2000/svg">
<path fill-rule="evenodd" clip-rule="evenodd" d="M4.16675 6.66665C4.16675 5.7826 4.51794 4.93475 5.14306 4.30963C5.76818 3.68451 6.61603 3.33332 7.50008 3.33332C8.44606 3.3322 9.38139 3.53291 10.2436 3.92206C11.1058 4.31121 11.8751 4.87985 12.5001 5.58998C13.125 4.87985 13.8943 4.31121 14.7565 3.92206C15.6188 3.53291 16.5541 3.3322 17.5001 3.33332C18.3841 3.33332 19.232 3.68451 19.8571 4.30963C20.4822 4.93475 20.8334 5.7826 20.8334 6.66665C20.8334 7.88165 20.5084 9.01998 19.9417 9.99998H21.6667C22.1088 9.99998 22.5327 10.1756 22.8453 10.4881C23.1578 10.8007 23.3334 11.2246 23.3334 11.6667V13.3333H30.0001C31.0944 13.3333 32.1781 13.5489 33.1891 13.9677C34.2002 14.3864 35.1188 15.0003 35.8926 15.7741C36.6665 16.5479 37.2803 17.4666 37.6991 18.4776C38.1179 19.4887 38.3334 20.5723 38.3334 21.6667V28.3333C38.3336 29.4062 37.9887 30.4508 37.3498 31.3127C36.7109 32.1746 35.8117 32.8082 34.7851 33.12C34.4794 34.1283 33.863 35.0143 33.0239 35.6515C32.1847 36.2887 31.1657 36.6445 30.1124 36.6682C29.059 36.6918 28.0251 36.3821 27.1582 35.7832C26.2913 35.1843 25.6357 34.3269 25.2851 33.3333H14.7167C14.3661 34.3269 13.7106 35.1843 12.8437 35.7832C11.9768 36.3821 10.9428 36.6918 9.88947 36.6682C8.83608 36.6445 7.8171 36.2887 6.97796 35.6515C6.13882 35.0143 5.52242 34.1283 5.21675 33.12C4.18981 32.8085 3.29028 32.175 2.65102 31.3131C2.01177 30.4511 1.66668 29.4064 1.66675 28.3333V11.6667C1.66675 11.2246 1.84234 10.8007 2.1549 10.4881C2.46746 10.1756 2.89139 9.99998 3.33341 9.99998H5.05841C4.4725 8.98693 4.16488 7.83695 4.16675 6.66665ZM7.50008 6.66665C8.38414 6.66665 9.23198 7.01784 9.8571 7.64296C10.4822 8.26808 10.8334 9.11593 10.8334 9.99998C9.94936 9.99998 9.10151 9.6488 8.47639 9.02367C7.85127 8.39855 7.50008 7.55071 7.50008 6.66665ZM14.1667 9.99998C15.0508 9.99998 15.8986 9.6488 16.5238 9.02367C17.1489 8.39855 17.5001 7.55071 17.5001 6.66665C16.616 6.66665 15.7682 7.01784 15.1431 7.64296C14.5179 8.26808 14.1667 9.11593 14.1667 9.99998ZM25.2851 30H23.3334V16.6667H30.0001C31.3262 16.6667 32.5979 17.1934 33.5356 18.1311C34.4733 19.0688 35.0001 20.3406 35.0001 21.6667V28.3333C35.0003 28.5522 34.9573 28.769 34.8735 28.9712C34.7897 29.1734 34.6667 29.3571 34.5117 29.5117C34.0857 28.6191 33.4044 27.8729 32.5542 27.3675C31.7039 26.8622 30.7229 26.6203 29.7352 26.6726C28.7475 26.7249 27.7975 27.0689 27.0054 27.6612C26.2133 28.2535 25.6146 29.0674 25.2851 30ZM8.82175 30.4883C8.97549 30.3291 9.1594 30.2022 9.36274 30.1148C9.56608 30.0275 9.78478 29.9815 10.0061 29.9796C10.2274 29.9776 10.4468 30.0198 10.6517 30.1036C10.8565 30.1874 11.0426 30.3112 11.1991 30.4677C11.3556 30.6241 11.4793 30.8102 11.5631 31.0151C11.6469 31.2199 11.6891 31.4394 11.6872 31.6607C11.6852 31.882 11.6393 32.1007 11.5519 32.304C11.4646 32.5073 11.3376 32.6912 11.1784 32.845C10.8641 33.1486 10.4431 33.3166 10.0061 33.3128C9.56909 33.309 9.15106 33.1337 8.84205 32.8247C8.53304 32.5157 8.35776 32.0976 8.35396 31.6607C8.35016 31.2237 8.51815 30.8027 8.82175 30.4883ZM28.3334 31.6667C28.3334 31.2246 28.509 30.8007 28.8216 30.4881C29.1341 30.1756 29.5581 30 30.0001 30C30.4421 30 30.866 30.1756 31.1786 30.4881C31.4912 30.8007 31.6667 31.2246 31.6667 31.6667C31.6667 32.1087 31.4912 32.5326 31.1786 32.8452C30.866 33.1577 30.4421 33.3333 30.0001 33.3333C29.5581 33.3333 29.1341 33.1577 28.8216 32.8452C28.509 32.5326 28.3334 32.1087 28.3334 31.6667Z" fill="#3BB17B"/>
</svg>
