<svg width="39" height="39" viewBox="0 0 39 39" fill="none" xmlns="http://www.w3.org/2000/svg">
<path d="M9.05913 3.37016C9.26602 3.46964 9.4406 3.62552 9.56279 3.81986C9.68497 4.01421 9.74978 4.2391 9.74976 4.46866C9.74976 5.81741 10.2568 6.59416 10.8921 7.53991L10.9393 7.60816C11.4788 8.41091 12.1873 9.46229 12.1873 10.9687C12.1873 12.5059 11.4121 13.8612 10.2308 14.6655C10.5411 14.9255 10.8158 15.2457 11.053 15.6292C11.8265 16.8804 12.1873 18.793 12.1873 21.5393C12.1873 24.3213 11.8135 27.6623 11.2041 30.3305C10.9019 31.6565 10.5265 32.8802 10.0796 33.7983C9.86865 34.2551 9.58919 34.6771 9.25088 35.0495C8.91613 35.3924 8.40101 35.758 7.71851 35.758C7.03601 35.758 6.52088 35.3924 6.18776 35.0495C5.84847 34.6778 5.5689 34.2557 5.35901 33.7983C4.91051 32.8785 4.53513 31.6565 4.23288 30.3289C3.59905 27.4409 3.26954 24.4944 3.24976 21.5377C3.24976 18.7914 3.61051 16.8804 4.38401 15.6292C4.60468 15.266 4.8823 14.9406 5.20626 14.6655C4.60301 14.256 4.10928 13.7049 3.76822 13.0604C3.42715 12.416 3.24915 11.6978 3.24976 10.9687C3.24976 10.3707 3.24976 9.34204 3.87213 8.01441C4.48151 6.71441 5.64013 5.22104 7.76888 3.51641C7.9483 3.3729 8.16462 3.28302 8.39291 3.25715C8.6212 3.23127 8.85215 3.27045 9.05913 3.37016ZM16.2498 24.24C15.3888 24.0956 14.5514 23.8354 13.7603 23.4665C13.7944 22.8068 13.8123 22.16 13.8123 21.5393C13.8123 20.8795 13.7928 20.249 13.7505 19.6478C14.4704 20.2409 15.3203 20.6813 16.2498 20.9202V17.0624C16.2498 16.4159 16.5066 15.796 16.9637 15.3388C17.4208 14.8817 18.0408 14.6249 18.6873 14.6249H24.3748C24.3749 13.385 24.0204 12.171 23.3532 11.126C22.6859 10.081 21.7337 9.24859 20.6088 8.72707C19.4839 8.20555 18.2334 8.01663 17.0047 8.1826C15.7759 8.34858 14.6203 8.86252 13.6741 9.66379C13.393 8.34104 12.7398 7.37254 12.3221 6.75341L12.2571 6.65591C13.7171 5.62671 15.4318 5.01838 17.214 4.89732C18.9962 4.77626 20.7774 5.14712 22.3631 5.96943C23.9489 6.79174 25.2783 8.03389 26.2061 9.56027C27.134 11.0867 27.6248 12.8386 27.6248 14.6249H33.3123C33.9587 14.6249 34.5787 14.8817 35.0358 15.3388C35.493 15.796 35.7498 16.4159 35.7498 17.0624V31.6874C35.7498 32.3339 35.493 32.9539 35.0358 33.411C34.5787 33.8681 33.9587 34.1249 33.3123 34.1249H18.6873C18.0408 34.1249 17.4208 33.8681 16.9637 33.411C16.5066 32.9539 16.2498 32.3339 16.2498 31.6874V24.24ZM19.4998 24.24V30.8749H32.4998V17.8749H27.0706C26.4898 19.5142 25.4815 20.9685 24.1502 22.0876C22.8189 23.2066 21.2129 23.9497 19.4981 24.24M23.5054 17.8749H19.4998V20.9202C20.336 20.7036 21.1208 20.3228 21.8085 19.8C22.4962 19.2772 23.073 18.6228 23.5054 17.8749Z" fill="#3BB17B"/>
</svg>
