<svg width="24" height="28" viewBox="0 0 24 28" fill="none" xmlns="http://www.w3.org/2000/svg">
<path fill-rule="evenodd" clip-rule="evenodd" d="M12 0C18.6167 0 24 5.35446 24 11.9366C24 20.0279 14.6095 28 12 28C9.39055 28 0 20.0279 0 11.9366C0 5.35446 5.38327 0 12 0ZM12 2.15385C6.58618 2.15385 2.18182 6.54338 2.18182 11.9366C2.18182 18.7988 10.3622 25.4843 12 25.8404C13.6378 25.4829 21.8182 18.7973 21.8182 11.9366C21.8182 6.54338 17.4138 2.15385 12 2.15385ZM12.0015 7.17949C14.608 7.17949 16.7287 9.27303 16.7287 11.8476C16.7287 14.4207 14.608 16.5128 12.0015 16.5128C9.39491 16.5128 7.27418 14.4207 7.27418 11.8476C7.27418 9.27303 9.39491 7.17949 12.0015 7.17949ZM12.0015 9.33333C10.5978 9.33333 9.456 10.4605 9.456 11.8476C9.456 13.2332 10.5978 14.359 12.0015 14.359C13.4051 14.359 14.5469 13.2332 14.5469 11.8476C14.5469 10.4605 13.4051 9.33333 12.0015 9.33333Z" fill="#016146"/>
</svg>
