<svg width="34" height="34" viewBox="0 0 34 34" fill="none" xmlns="http://www.w3.org/2000/svg">
<path d="M17.0002 3.30312H17C14.291 3.30312 11.6429 4.10643 9.39043 5.61146C7.13799 7.1165 5.38243 9.25566 4.34574 11.7584C3.30906 14.2612 3.03782 17.0152 3.56631 19.6721C4.09481 22.3291 5.39931 24.7696 7.31485 26.6852C9.2304 28.6007 11.6709 29.9052 14.3279 30.4337C16.9848 30.9622 19.7388 30.691 22.2416 29.6543C24.7444 28.6176 26.8835 26.862 28.3885 24.6096C29.8936 22.3571 30.6969 19.709 30.6969 17V16.9998C30.6926 13.3685 29.2482 9.88721 26.6805 7.31951C24.1128 4.7518 20.6315 3.30739 17.0002 3.30312ZM18.732 24.0445C18.9096 23.867 19.0094 23.6261 19.0094 23.375C19.0094 23.1239 18.9096 22.883 18.732 22.7055C18.5545 22.5279 18.3136 22.4281 18.0625 22.4281C18.0318 22.4281 18.0024 22.4159 17.9807 22.3943C17.9591 22.3726 17.9469 22.3432 17.9469 22.3125V17C17.9469 16.4671 17.7352 15.956 17.3583 15.5792C16.9815 15.2023 16.4704 14.9906 15.9375 14.9906C15.6864 14.9906 15.4455 15.0904 15.268 15.268C15.0904 15.4455 14.9906 15.6864 14.9906 15.9375C14.9906 16.1886 15.0904 16.4295 15.268 16.607C15.4455 16.7846 15.6864 16.8844 15.9375 16.8844C15.9682 16.8844 15.9976 16.8966 16.0193 16.9182C16.041 16.9399 16.0531 16.9693 16.0531 17V22.3125C16.0531 22.8454 16.2648 23.3565 16.6417 23.7333C17.0185 24.1102 17.5296 24.3219 18.0625 24.3219C18.3136 24.3219 18.5545 24.2221 18.732 24.0445ZM16.4688 12.6344C16.7611 12.6344 17.0469 12.5477 17.29 12.3853C17.533 12.2228 17.7225 11.992 17.8344 11.7219C17.9462 11.4518 17.9755 11.1546 17.9185 10.8679C17.8614 10.5812 17.7207 10.3178 17.514 10.1111C17.3072 9.90434 17.0439 9.76356 16.7571 9.70653C16.4704 9.64949 16.1732 9.67877 15.9031 9.79064C15.633 9.90252 15.4022 10.092 15.2397 10.335C15.0773 10.5781 14.9906 10.8639 14.9906 11.1563C14.9906 11.5483 15.1464 11.9242 15.4236 12.2014C15.7008 12.4786 16.0767 12.6344 16.4688 12.6344ZM26.8139 10.4425C28.1109 12.3835 28.8031 14.6655 28.8031 16.9998C28.7997 20.1292 27.555 23.1294 25.3422 25.3422C23.1294 27.555 20.1292 28.7997 16.9998 28.8031C14.6655 28.8031 12.3835 28.1109 10.4425 26.8139C8.50153 25.517 6.98869 23.6736 6.09534 21.5169C5.20199 19.3601 4.96825 16.9869 5.42368 14.6973C5.8791 12.4077 7.00324 10.3046 8.65394 8.65393C10.3046 7.00323 12.4078 5.8791 14.6973 5.42367C16.9869 4.96824 19.3601 5.20198 21.5169 6.09533C23.6736 6.98869 25.517 8.50152 26.8139 10.4425Z" fill="#006747" stroke="#006747" stroke-width="0.3"/>
</svg>
