<svg width="17" height="17" viewBox="0 0 17 17" fill="none" xmlns="http://www.w3.org/2000/svg">
<path d="M8.49984 15.5833C7.53178 15.5833 6.61685 15.3972 5.75505 15.0251C4.89324 14.653 4.14075 14.1454 3.49759 13.5022C2.85395 12.859 2.34631 12.1066 1.97467 11.2448C1.60303 10.3829 1.41698 9.46801 1.4165 8.49996C1.4165 7.5201 1.60256 6.60233 1.97467 5.74667C2.34678 4.891 2.85442 4.14135 3.49759 3.49771C4.14075 2.85407 4.893 2.34643 5.75434 1.97479C6.61567 1.60315 7.53084 1.4171 8.49984 1.41663C9.4797 1.41663 10.3977 1.60268 11.2538 1.97479C12.11 2.3469 12.8594 2.85454 13.5021 3.49771C14.1457 4.14088 14.6534 4.89053 15.025 5.74667C15.3966 6.60281 15.5827 7.52057 15.5832 8.49996C15.5832 9.46801 15.3971 10.3829 15.025 11.2448C14.6529 12.1066 14.1453 12.8593 13.5021 13.5029C12.8589 14.1461 12.1093 14.6537 11.2531 15.0258C10.397 15.3979 9.47923 15.5838 8.49984 15.5833ZM8.49984 14.1312C8.80678 13.7062 9.07241 13.2635 9.29671 12.8031C9.52102 12.3427 9.704 11.8527 9.84567 11.3333H7.154C7.29567 11.8527 7.47866 12.3427 7.70296 12.8031C7.92727 13.2635 8.19289 13.7062 8.49984 14.1312ZM6.65817 13.8479C6.44567 13.4583 6.25985 13.0538 6.10071 12.6345C5.94157 12.2152 5.80864 11.7814 5.70192 11.3333H3.61234C3.9547 11.9236 4.38277 12.4371 4.89655 12.8739C5.41032 13.3107 5.99753 13.6354 6.65817 13.8479ZM10.3415 13.8479C11.0026 13.6354 11.5901 13.3107 12.1038 12.8739C12.6176 12.4371 13.0454 11.9236 13.3873 11.3333H11.2978C11.1915 11.7819 11.0588 12.2159 10.8997 12.6352C10.7405 13.0545 10.5545 13.4588 10.3415 13.8479ZM3.01025 9.91663H5.41859C5.38317 9.68051 5.35673 9.44747 5.33925 9.2175C5.32178 8.98753 5.31281 8.74835 5.31234 8.49996C5.31234 8.25204 5.32131 8.0131 5.33925 7.78313C5.3572 7.55315 5.38364 7.31988 5.41859 7.08329H3.01025C2.95123 7.3194 2.90707 7.55268 2.8778 7.78313C2.84852 8.01357 2.83364 8.25251 2.83317 8.49996C2.83317 8.74788 2.84805 8.98706 2.8778 9.2175C2.90755 9.44794 2.9517 9.68099 3.01025 9.91663ZM6.83525 9.91663H10.1644C10.1998 9.68051 10.2265 9.44747 10.2445 9.2175C10.2624 8.98753 10.2711 8.74835 10.2707 8.49996C10.2707 8.25204 10.2617 8.0131 10.2438 7.78313C10.2258 7.55315 10.1994 7.31988 10.1644 7.08329H6.83525C6.79984 7.3194 6.77339 7.55268 6.75592 7.78313C6.73845 8.01357 6.72948 8.25251 6.729 8.49996C6.729 8.74788 6.73798 8.98706 6.75592 9.2175C6.77387 9.44794 6.80031 9.68099 6.83525 9.91663ZM11.5811 9.91663H13.9894C14.0484 9.68051 14.0928 9.44747 14.1226 9.2175C14.1523 8.98753 14.167 8.74835 14.1665 8.49996C14.1665 8.25204 14.1519 8.0131 14.1226 7.78313C14.0933 7.55315 14.0489 7.31988 13.9894 7.08329H11.5811C11.6165 7.3194 11.6432 7.55268 11.6611 7.78313C11.6791 8.01357 11.6878 8.25251 11.6873 8.49996C11.6873 8.74788 11.6784 8.98706 11.6604 9.2175C11.6425 9.44794 11.616 9.68099 11.5811 9.91663ZM11.2978 5.66663H13.3873C13.045 5.07635 12.6171 4.56281 12.1038 4.126C11.5905 3.6892 11.0031 3.36454 10.3415 3.15204C10.554 3.54163 10.7401 3.94608 10.8997 4.36542C11.0593 4.78475 11.192 5.21849 11.2978 5.66663ZM7.154 5.66663H9.84567C9.704 5.14718 9.52102 4.65725 9.29671 4.19683C9.07241 3.73642 8.80678 3.29371 8.49984 2.86871C8.19289 3.29371 7.92727 3.73642 7.70296 4.19683C7.47866 4.65725 7.29567 5.14718 7.154 5.66663ZM3.61234 5.66663H5.70192C5.80817 5.21801 5.9411 4.78404 6.10071 4.36471C6.26032 3.94538 6.44614 3.54115 6.65817 3.15204C5.99706 3.36454 5.40962 3.6892 4.89584 4.126C4.38206 4.56281 3.95423 5.07635 3.61234 5.66663Z" fill="#16A460"/>
</svg>
