<svg width="40" height="33" viewBox="0 0 40 33" fill="none" xmlns="http://www.w3.org/2000/svg">
<path fill-rule="evenodd" clip-rule="evenodd" d="M28.8948 0.5C34.9285 0.5 39.4782 4.95867 39.4782 10.8713V22.1418C39.4782 25.1679 38.2969 27.9018 36.1497 29.8415C34.2236 31.5794 31.725 32.5 28.9237 32.5H11.0708C8.27498 32.5 5.77814 31.581 3.85025 29.8415C1.70311 27.9018 0.521729 25.1679 0.521729 22.1418V10.8713C0.521729 4.95867 5.07149 0.5 11.1052 0.5H28.8948ZM28.8948 2.96154H11.1052C6.54821 2.96154 3.23963 6.2879 3.23963 10.8713V22.1418C3.23963 24.5098 4.13834 26.6251 5.76908 28.0971C7.17514 29.3689 9.01063 30.0385 11.0762 30.0385H28.8948C28.8984 30.0352 28.9129 30.0385 28.9237 30.0385C30.9912 30.0385 32.8248 29.3689 34.2309 28.0971C35.8634 26.6251 36.7604 24.5098 36.7604 22.1418V10.8713C36.7604 6.2879 33.4518 2.96154 28.8948 2.96154ZM31.7504 10.5575C32.2233 11.0843 32.1345 11.8589 31.5529 12.2888L23.5006 18.2162C22.4823 18.9481 21.2647 19.314 20.0489 19.314C18.8367 19.314 17.6282 18.9514 16.6171 18.226L8.4906 12.2921C7.90535 11.8654 7.81475 11.0892 8.28404 10.5608C8.75696 10.034 9.61219 9.95034 10.1956 10.3754L18.3149 16.3027C19.335 17.0346 20.7719 17.0346 21.7992 16.2962L29.837 10.3786C30.4204 9.94706 31.2756 10.0291 31.7504 10.5575Z" fill="#016146"/>
</svg>
