<svg width="100" height="68" viewBox="0 0 100 68" fill="none" xmlns="http://www.w3.org/2000/svg">
<path d="M0.859375 1.09454C0.625 1.19219 0.332031 1.50469 0.214844 1.7586C0.0585938 2.11016 0 10.0789 0 30.2547V58.2625L0.46875 58.8094L0.9375 59.3563L4.16016 59.4149L7.36328 59.4734L7.67578 60.5867C8.32031 62.9109 10.7422 65.6844 13.125 66.8563C17.3438 68.9266 22.207 68.1453 25.4883 64.8445C26.8945 63.4188 27.9102 61.7781 28.3008 60.2742L28.5352 59.4539H50.0977H71.6602L71.9531 60.4695C72.4219 62.0516 73.5938 63.868 74.9805 65.1375C78.3008 68.1844 83.0078 68.8485 87.1094 66.8367C89.4727 65.6844 91.7969 62.9109 92.5781 60.2938L92.832 59.4734L95.9375 59.4149L99.0625 59.3563L99.5312 58.8094L100 58.2625V45.2156V32.1688L95.9766 22.2274C93.1445 15.1766 91.8359 12.1492 91.4844 11.8367L90.9961 11.407H77.4219H63.8672V6.62188V1.81719L63.3789 1.34844L62.9102 0.860161L32.0898 0.879692C11.2891 0.879692 1.13281 0.957817 0.859375 1.09454ZM60.7422 30.157V56.1336H44.7461H28.7695L28.5352 55.0399C27.7539 51.0945 24.4531 47.6961 20.4102 46.6609C16.5234 45.6649 11.9336 47.2664 9.49219 50.45L8.75 51.4461H6.03516H3.32031V27.8133V4.18048H32.0312H60.7422V30.157ZM93.0859 23.7117L96.6797 32.5984V42.0125V51.4461H94.0625H91.4453L90.7031 50.45C88.2617 47.2664 83.6523 45.6649 79.7852 46.6609C77.6758 47.2078 76.2891 47.9891 74.7461 49.532C73.1445 51.0945 72.0508 53.0477 71.6406 55.0399L71.4062 56.1336H67.6367H63.8672V35.4305V14.7274L76.6797 14.7664L89.4727 14.825L93.0859 23.7117ZM20.1953 49.9617C25.1562 51.4656 27.1094 57.7352 23.9062 61.8563C22.3828 63.8094 20.0781 64.825 17.5 64.6883C14.9609 64.5516 12.9492 63.3992 11.6211 61.3094C8.37891 56.2508 11.8555 49.7078 17.793 49.6883C18.6133 49.6883 19.6875 49.8055 20.1953 49.9617ZM84.8633 50.0984C87.7148 51.1727 89.8438 54.1414 89.8438 57.0906C89.8438 60.0789 87.9883 62.95 85.2344 64.1805C83.9648 64.7469 81.5234 64.8836 80.1172 64.4734C78.7695 64.0633 77.168 62.9695 76.2891 61.8563C73.75 58.5945 74.375 53.6531 77.6562 51.1531C79.5898 49.6883 82.5781 49.2391 84.8633 50.0984ZM7.26562 55.45L7.1875 56.1336H5.25391H3.32031V55.45V54.7664H5.33203H7.34375L7.26562 55.45ZM96.6797 55.45V56.1336H94.8242C93.125 56.1336 92.9688 56.0945 92.9688 55.7625C92.9688 55.5477 92.9102 55.2547 92.8516 55.0789C92.7539 54.8055 92.9883 54.7664 94.707 54.7664H96.6797V55.45Z" fill="#016146"/>
<path d="M6.15223 7.24683C4.90223 7.55933 4.47254 9.06323 5.37098 9.94214L5.83973 10.4304H31.8944C57.5975 10.4304 57.9686 10.4304 58.4569 10.0398C59.453 9.23901 59.1991 7.75464 57.9882 7.32495C57.539 7.1687 50.0975 7.11011 31.953 7.12964C17.9686 7.14917 6.36708 7.18823 6.15223 7.24683Z" fill="#016146"/>
<path d="M5.37112 18.1453C4.70706 18.7899 4.70706 19.7664 5.39065 20.411L5.89846 20.8797L29.2578 20.9383C45.9961 20.9774 52.8516 20.9383 53.3789 20.7821C54.7266 20.3914 55 18.7508 53.8672 17.9696C53.4766 17.6961 51.1328 17.6571 29.6289 17.6571H5.83987L5.37112 18.1453Z" fill="#016146"/>
<path d="M56.582 18.0476C55.9375 18.5555 55.7813 19.2781 56.1328 19.9812C56.8359 21.3094 58.8086 20.9773 59.1016 19.4734C59.1992 18.9461 59.1211 18.7508 58.6328 18.243C57.9492 17.5594 57.2852 17.5008 56.582 18.0476Z" fill="#016146"/>
<path d="M5.31248 28.6531C4.72655 29.2781 4.74608 30.2351 5.37108 30.8406L5.83983 31.3289H31.9922H58.1445L58.5351 30.8796C58.75 30.6453 59.0039 30.2546 59.0625 30.0203C59.2187 29.5125 58.75 28.4968 58.3008 28.321C58.125 28.2625 46.2305 28.2039 31.8555 28.2039H5.72264L5.31248 28.6531Z" fill="#016146"/>
<path d="M5.72264 38.7509C4.92186 39.0634 4.60936 40.411 5.15623 41.1337C5.48826 41.5829 6.34764 41.8954 6.77733 41.7392C8.20311 41.2313 8.47654 39.4931 7.20701 38.8485C6.58201 38.5165 6.34764 38.497 5.72264 38.7509Z" fill="#016146"/>
<path d="M10.254 38.7898C9.23835 39.3757 9.06257 40.5476 9.88288 41.3093L10.3907 41.7781H34.2969H58.1837L58.6329 41.3484C59.2774 40.7039 59.2188 39.6101 58.5157 39.0242L57.9884 38.5554H34.3165C16.8751 38.575 10.5469 38.6335 10.254 38.7898Z" fill="#016146"/>
<path d="M66.4843 16.368C65.4296 16.8367 65.4101 17.032 65.4687 25.9383L65.5273 34.1024L66.0741 34.5711L66.621 35.0399H80.3515C93.7499 35.0399 94.1015 35.0399 94.5898 34.6492C95.5468 33.8875 95.5273 33.8094 92.0702 25.2156C90.078 20.2742 88.6523 16.9734 88.3593 16.6805L87.8905 16.1922L77.4804 16.1531C69.0819 16.1141 66.9726 16.1531 66.4843 16.368ZM88.3788 24.7274C89.5702 27.657 90.6835 30.4109 90.8593 30.8797L91.2108 31.7195H79.9804H68.7499V25.5672V19.4149H77.4999H86.2304L88.3788 24.7274Z" fill="#016146"/>
<path d="M92.7539 40.3718C92.1289 40.8406 91.9922 41.4656 91.9922 43.7312C91.9922 46.7195 92.3047 47.3445 93.7305 47.3445C94.4336 47.3445 95.0781 46.7195 95.2148 45.8992C95.293 45.5281 95.3125 44.2976 95.2734 43.1453C95.2148 41.1335 95.1953 41.0359 94.668 40.5867C94.082 40.0789 93.2617 39.9812 92.7539 40.3718Z" fill="#016146"/>
<path d="M16.4063 52.0125C14.961 52.4813 13.8282 53.4774 13.0665 54.9422C12.7344 55.5867 12.6173 56.1532 12.6173 57.0907C12.5977 61.2899 16.8555 63.868 20.5274 61.8758C24.2579 59.825 24.1798 54.3367 20.3712 52.4227C19.3751 51.9149 17.3438 51.7 16.4063 52.0125ZM19.4337 55.7625C19.9219 56.2313 20.0196 56.4852 20.0196 57.2274C20.0196 57.9891 19.9219 58.2039 19.3751 58.6922C17.9688 59.9422 15.8204 59.0438 15.8204 57.2078C15.8204 56.1922 16.4454 55.45 17.5782 55.0985C18.1055 54.9227 18.8477 55.1961 19.4337 55.7625Z" fill="#016146"/>
<path d="M80.3516 52.1493C78.3398 52.872 76.9336 54.9423 76.9336 57.1688C76.9336 57.872 77.0703 58.7509 77.2266 59.161C78.6523 62.5595 82.9688 63.6337 85.7227 61.2899C87.6172 59.6493 88.1836 56.6024 86.9531 54.5712C85.5469 52.286 82.793 51.2899 80.3516 52.1493ZM83.3594 55.411C84.6484 56.036 84.668 58.0087 83.3984 59.0048C82.8516 59.4345 81.543 59.3173 80.8789 58.7509C79.5313 57.6181 80.0391 55.6649 81.8359 55.0985C82.1875 54.9813 82.7344 55.0985 83.3594 55.411Z" fill="#016146"/>
</svg>
