<svg width="32" height="32" viewBox="0 0 32 32" fill="none" xmlns="http://www.w3.org/2000/svg">
<mask id="mask0_4_808" style="mask-type:luminance" maskUnits="userSpaceOnUse" x="1" y="1" width="31" height="31">
<path d="M30 17C30 24.4561 24.4561 30 17 30H3V17C3 9.54395 9.54395 3 17 3C24.4561 3 30 9.54395 30 17Z" fill="white"/>
<path d="M30 17C30 24.4561 24.4561 30 17 30H3V17C3 9.54395 9.54395 3 17 3C24.4561 3 30 9.54395 30 17Z" stroke="white" stroke-width="4" stroke-linecap="round" stroke-linejoin="round"/>
<path d="M10 12H22M10 18H22M10 23H17" stroke="black" stroke-width="4" stroke-linecap="round" stroke-linejoin="round"/>
</mask>
<g mask="url(#mask0_4_808)">
<path d="M0 0H32V32H0V0Z" fill="#16A460"/>
</g>
</svg>
