<svg width="26" height="26" viewBox="0 0 26 26" fill="none" xmlns="http://www.w3.org/2000/svg">
<path fill-rule="evenodd" clip-rule="evenodd" d="M5.79552 0.000685042C7.18555 0.0197089 8.17612 1.08124 9.42926 2.42433C9.73913 2.75534 10.0739 3.1168 10.4485 3.49728C12.2641 5.34893 11.7476 6.85943 11.3308 8.07189C10.8778 9.39468 10.4858 10.5361 12.8328 12.9281C15.1798 15.32 16.2985 14.9205 17.5952 14.455C18.7861 14.0314 20.2645 13.5013 22.0839 15.353C22.4535 15.7296 22.8019 16.067 23.1255 16.3803C24.4483 17.6637 25.4936 18.6771 25.5112 20.0975C25.5247 21.3074 24.803 22.5427 23.0209 24.3589L22.232 23.8135L22.9002 24.4768C22.5057 24.889 21.4567 25.9873 19.4021 26H19.3648C16.2637 26 12.2205 23.4838 7.34733 18.5185C2.45423 13.533 -0.0184578 9.39975 0.000103726 6.23291C0.0114085 4.14028 1.08784 3.0686 1.49228 2.66657L1.5268 2.62814L1.6105 2.54228C3.39626 0.722325 4.62327 -0.0259484 5.79552 0.000685042ZM5.77188 1.90307H5.76192C5.2031 1.90307 4.35443 2.47379 3.1708 3.64553L2.93312 3.88341L2.93582 3.88283C2.93582 3.88283 2.91551 3.90657 2.8809 3.94255L2.79769 4.02741C2.49654 4.32545 1.87308 4.94563 1.86679 6.24306C1.8569 8.05794 3.02791 11.4277 8.66643 17.1729C14.2776 22.8902 17.579 24.0976 19.3648 24.0976H19.3909C20.664 24.09 21.2713 23.4546 21.5637 23.149C21.6521 23.0564 21.7242 22.9866 21.7753 22.9448C23.016 21.6727 23.6506 20.7278 23.6444 20.1203C23.6369 19.5014 22.8816 18.7709 21.8375 17.7576C21.5052 17.4367 21.1443 17.0854 20.7635 16.6973C19.7755 15.6941 19.2889 15.8653 18.2125 16.2509C16.7254 16.7823 14.6882 17.5103 11.5137 14.2724C8.3379 11.0371 9.04971 8.96094 9.56864 7.4441C9.94446 6.34832 10.1162 5.8499 9.12936 4.8429C8.74358 4.44974 8.39639 4.07687 8.07657 3.73444C7.08849 2.67671 6.37543 1.91195 5.77188 1.90307ZM16.4841 4.51252C19.0737 5.02489 21.0735 7.06172 21.5775 9.70223C21.6758 10.2197 21.3461 10.7181 20.8408 10.8183C20.7798 10.8297 20.7201 10.8361 20.6604 10.8361C20.2223 10.8361 19.8328 10.5215 19.7457 10.0675C19.3873 8.19047 17.9674 6.74339 16.1282 6.3794C15.6217 6.2792 15.2919 5.78078 15.3902 5.2646C15.4885 4.74841 15.9863 4.41106 16.4841 4.51252ZM16.4095 0.00791412C21.4843 0.582436 25.4254 4.59394 25.9941 9.76463C26.0514 10.2872 25.683 10.7577 25.1716 10.816C25.1367 10.8198 25.1006 10.8224 25.0658 10.8224C24.5966 10.8224 24.1934 10.4634 24.1399 9.9777C23.6683 5.69606 20.4054 2.37322 16.203 1.89762C15.6915 1.83928 15.3219 1.37002 15.3791 0.847502C15.4351 0.326247 15.8918 -0.0580354 16.4095 0.00791412Z" fill="#016146"/>
</svg>
