<svg width="50" height="50" viewBox="0 0 50 50" fill="none" xmlns="http://www.w3.org/2000/svg">
<path d="M34.7917 32.2917L42.7083 25.5208L44.0625 25.625C44.6528 25.6945 45.1132 25.9375 45.4437 26.3542C45.7743 26.7708 45.9389 27.2222 45.9375 27.7083C45.9375 27.9861 45.8854 28.2639 45.7812 28.5417C45.6771 28.8195 45.4861 29.0625 45.2083 29.2708L39.7917 34.0104L41.4062 41.0417C41.441 41.1111 41.4583 41.1896 41.4583 41.2771V41.5104C41.4583 42.1007 41.25 42.5958 40.8333 42.9958C40.4167 43.3958 39.9306 43.5951 39.375 43.5938C39.2014 43.5938 39.0194 43.5674 38.8292 43.5146C38.6389 43.4618 38.4562 43.384 38.2812 43.2813L37.1875 42.6042L34.7917 32.2917ZM29.8958 17.0833L27.7083 11.9792L28.1771 10.8333C28.3507 10.4167 28.6194 10.0952 28.9833 9.86876C29.3472 9.64237 29.7208 9.52987 30.1042 9.53126C30.4861 9.53126 30.8597 9.63543 31.225 9.84376C31.5903 10.0521 31.859 10.3646 32.0312 10.7813L34.8958 17.5521L29.8958 17.0833ZM10.1042 41.0417L12.3958 31.1979L4.73958 24.5833C4.46181 24.375 4.27986 24.132 4.19375 23.8542C4.10764 23.5764 4.06389 23.2986 4.0625 23.0208C4.0625 22.5347 4.22778 22.0833 4.55833 21.6667C4.88889 21.25 5.34861 21.007 5.9375 20.9375L16.0417 20.0521L19.9479 10.7813C20.1215 10.3646 20.391 10.0521 20.7563 9.84376C21.1215 9.63543 21.4944 9.53126 21.875 9.53126C22.2569 9.53126 22.6306 9.63543 22.9958 9.84376C23.3611 10.0521 23.6299 10.3646 23.8021 10.7813L27.7083 20.0521L37.8125 20.9375C38.4028 21.007 38.8632 21.25 39.1937 21.6667C39.5243 22.0833 39.6889 22.5347 39.6875 23.0208C39.6875 23.2986 39.6444 23.5764 39.5583 23.8542C39.4722 24.132 39.2896 24.375 39.0104 24.5833L31.3542 31.1979L33.6458 41.0417C33.6806 41.1458 33.6979 41.3021 33.6979 41.5104C33.6979 42.1007 33.4896 42.5958 33.0729 42.9958C32.6562 43.3958 32.1701 43.5951 31.6146 43.5938C31.5104 43.5938 31.1458 43.4896 30.5208 43.2813L21.875 38.0729L13.2292 43.2813C13.0556 43.3854 12.8736 43.4639 12.6833 43.5167C12.4931 43.5695 12.3104 43.5951 12.1354 43.5938C11.5104 43.5938 10.9722 43.3417 10.5208 42.8375C10.0694 42.3333 9.93055 41.7347 10.1042 41.0417Z" fill="#3BB17B"/>
</svg>
