<svg width="42" height="42" viewBox="0 0 42 42" fill="none" xmlns="http://www.w3.org/2000/svg">
<path d="M21 0C16.8466 0 12.7865 1.23163 9.33303 3.53914C5.8796 5.84665 3.18798 9.1264 1.59854 12.9636C0.00909895 16.8009 -0.406771 21.0233 0.403518 25.0969C1.21381 29.1705 3.21386 32.9123 6.15076 35.8492C9.08767 38.7861 12.8295 40.7862 16.9031 41.5965C20.9767 42.4068 25.1991 41.9909 29.0364 40.4015C32.8736 38.812 36.1534 36.1204 38.4609 32.667C40.7684 29.2135 42 25.1534 42 21C42 15.4305 39.7875 10.089 35.8492 6.15076C31.911 2.21249 26.5695 0 21 0ZM21 34.5C20.555 34.5 20.12 34.368 19.75 34.1208C19.38 33.8736 19.0916 33.5222 18.9213 33.111C18.751 32.6999 18.7064 32.2475 18.7932 31.811C18.8801 31.3746 19.0943 30.9737 19.409 30.659C19.7237 30.3443 20.1246 30.13 20.5611 30.0432C20.9975 29.9564 21.4499 30.001 21.861 30.1713C22.2722 30.3416 22.6236 30.6299 22.8708 31C23.118 31.37 23.25 31.805 23.25 32.25C23.25 32.8467 23.013 33.419 22.591 33.841C22.169 34.2629 21.5967 34.5 21 34.5ZM22.713 22.869V26.6205H19.338V19.5H22.5255C23.4709 19.5 24.3776 19.1244 25.0462 18.4559C25.7147 17.7874 26.0903 16.8807 26.0903 15.9352C26.0903 14.9898 25.7147 14.0831 25.0462 13.4146C24.3776 12.7461 23.4709 12.3705 22.5255 12.3705H20.2755C19.331 12.3717 18.4256 12.7474 17.7578 13.4152C17.0899 14.0831 16.7142 14.9885 16.713 15.933V16.89H13.338V15.933C13.3404 14.0942 14.0722 12.3315 15.3729 11.0317C16.6735 9.73187 18.4367 9.00119 20.2755 9H22.5255C24.3461 9.00416 26.092 9.72394 27.3865 11.004C28.6811 12.2841 29.4204 14.0218 29.445 15.8422C29.4696 17.6626 28.7775 19.4197 27.5181 20.7343C26.2586 22.0489 24.5328 22.8156 22.713 22.869Z" fill="#DCF2E7"/>
</svg>
