<svg width="27" height="27" viewBox="0 0 27 27" fill="none" xmlns="http://www.w3.org/2000/svg">
<path d="M15.8858 11.79C15.6748 11.5791 15.3887 11.4606 15.0904 11.4606C14.7921 11.4606 14.506 11.5791 14.295 11.79L13.4997 12.5842C13.0753 12.9941 12.5069 13.2209 11.917 13.2157C11.3271 13.2106 10.7627 12.974 10.3456 12.5568C9.92839 12.1396 9.69176 11.5753 9.68663 10.9854C9.68151 10.3954 9.90829 9.82708 10.3181 9.40272L16.6519 3.06672C18.1514 2.72565 19.7203 2.86602 21.1355 3.46787C22.5507 4.06972 23.7401 5.10241 24.5346 6.4191C25.3292 7.73579 25.6884 9.26946 25.5611 10.802C25.4339 12.3346 24.8268 13.7881 23.826 14.9557L21.4545 17.3576L15.8858 11.79ZM3.55577 5.02647C4.71988 3.86252 6.24252 3.1252 7.87753 2.93371C9.51254 2.74222 11.1643 3.10776 12.5659 3.97122L8.72627 7.81197C7.89467 8.64192 7.42064 9.76418 7.40545 10.939C7.39027 12.1138 7.83515 13.2479 8.64503 14.0991C9.4549 14.9502 10.5655 15.4509 11.7396 15.4941C12.9137 15.5373 14.0582 15.1196 14.9284 14.3302L15.0904 14.1761L19.8638 18.9483L15.0904 23.7217C14.6685 24.1435 14.0963 24.3805 13.4997 24.3805C12.903 24.3805 12.3308 24.1435 11.9089 23.7217L3.55465 15.3675C2.18342 13.9961 1.41309 12.1363 1.41309 10.197C1.41309 8.25768 2.18455 6.39781 3.55577 5.02647Z" fill="#16A460"/>
</svg>
