<svg width="48" height="48" viewBox="0 0 48 48" fill="none" xmlns="http://www.w3.org/2000/svg">
<path d="M23.5 38H23C18.2667 38 14.25 36.35 10.95 33.05C7.65 29.75 6 25.7333 6 21C6 16.2667 7.65 12.25 10.95 8.95C14.25 5.65 18.2667 4 23 4C25.3667 4 27.5753 4.44133 29.626 5.324C31.6767 6.20667 33.4767 7.42333 35.026 8.974C36.5753 10.5247 37.7913 12.3247 38.674 14.374C39.5567 16.4233 39.9987 18.632 40 21C40 25.4667 38.7413 29.6167 36.224 33.45C33.7067 37.2833 30.532 40.2833 26.7 42.45C26.3667 42.6167 26.0333 42.7087 25.7 42.726C25.3667 42.7433 25.0667 42.668 24.8 42.5C24.5333 42.3333 24.3 42.1167 24.1 41.85C23.9 41.5833 23.7833 41.2667 23.75 40.9L23.5 38ZM22.95 31.95C23.5167 31.95 24 31.75 24.4 31.35C24.8 30.95 25 30.4667 25 29.9C25 29.3333 24.8 28.85 24.4 28.45C24 28.05 23.5167 27.85 22.95 27.85C22.3833 27.85 21.9 28.05 21.5 28.45C21.1 28.85 20.9 29.3333 20.9 29.9C20.9 30.4667 21.1 30.95 21.5 31.35C21.9 31.75 22.3833 31.95 22.95 31.95ZM18.6 16.75C18.9667 16.9167 19.3333 16.9253 19.7 16.776C20.0667 16.6267 20.3667 16.3847 20.6 16.05C20.9 15.65 21.25 15.3413 21.65 15.124C22.05 14.9067 22.5 14.7987 23 14.8C23.8 14.8 24.45 15.0247 24.95 15.474C25.45 15.9233 25.7 16.4987 25.7 17.2C25.7 17.6333 25.5753 18.0667 25.326 18.5C25.0767 18.9333 24.6347 19.4667 24 20.1C23.1667 20.8333 22.55 21.5253 22.15 22.176C21.75 22.8267 21.55 23.4847 21.55 24.15C21.55 24.55 21.692 24.892 21.976 25.176C22.26 25.46 22.6013 25.6013 23 25.6C23.4 25.6 23.7333 25.45 24 25.15C24.2667 24.85 24.4667 24.5 24.6 24.1C24.7667 23.5333 25.0667 23.0167 25.5 22.55C25.9333 22.0833 26.3333 21.6667 26.7 21.3C27.4 20.6 27.9253 19.9 28.276 19.2C28.6267 18.5 28.8013 17.8 28.8 17.1C28.8 15.5667 28.2747 14.3333 27.224 13.4C26.1733 12.4667 24.7653 12 23 12C21.9333 12 20.95 12.2587 20.05 12.776C19.15 13.2933 18.4167 14.0013 17.85 14.9C17.65 15.2667 17.6247 15.6253 17.774 15.976C17.9233 16.3267 18.1987 16.5847 18.6 16.75Z" fill="#3BB17B"/>
</svg>
