
<svg width="17" height="17" viewBox="0 0 17 17" fill="none" xmlns="http://www.w3.org/2000/svg">
<g clip-path="url(#clip0_15_432)">
<g clip-path="url(#clip1_15_432)">
<path d="M1321 -593H-311V912H1321V-593Z" fill="#DAE0E6"/>
<path d="M317.504 -163H-4.50376C-9.1961 -163 -13 -159.193 -13 -154.497V322.497C-13 327.193 -9.1961 331 -4.50376 331H317.504C322.196 331 326 327.193 326 322.497V-154.497C326 -159.193 322.196 -163 317.504 -163Z" fill="white" stroke="#C1C7CC" stroke-width="0.868418"/>
<path d="M157 -16H-13V34H157V-16Z" fill="#DAE0E6" fill-opacity="0.1" stroke="#E0E3E6" stroke-width="0.868418"/>
<path d="M8.00013 3.55556C8.24813 3.55556 8.45617 3.47022 8.62423 3.29956C8.79229 3.12889 8.87603 2.91793 8.87545 2.66667C8.87486 2.41541 8.79083 2.20444 8.62335 2.03378C8.45588 1.86311 8.24813 1.77778 8.00013 1.77778C7.75212 1.77778 7.54438 1.86311 7.3769 2.03378C7.20942 2.20444 7.12539 2.41541 7.12481 2.66667C7.12422 2.91793 7.20826 3.12918 7.3769 3.30044C7.54555 3.4717 7.75329 3.55674 8.00013 3.55556ZM10.4729 3.55556H12.0047C12.4424 3.55556 12.8217 3.7037 13.1426 4C13.4636 4.2963 13.6605 4.65926 13.7335 5.08889L14.9808 13.9778C15.0537 14.5111 14.9189 14.9816 14.5764 15.3893C14.2339 15.797 13.7924 16.0006 13.252 16H2.74822C2.20844 16 1.76698 15.7964 1.42386 15.3893C1.08074 14.9822 0.945936 14.5117 1.01946 13.9778L2.26679 5.08889C2.33973 4.65926 2.53668 4.2963 2.85763 4C3.17858 3.7037 3.55789 3.55556 3.99555 3.55556H5.52735C5.48359 3.40741 5.44711 3.26311 5.41794 3.12267C5.38876 2.98222 5.37417 2.83022 5.37417 2.66667C5.37417 1.92593 5.62947 1.2963 6.14008 0.777778C6.65068 0.259259 7.27069 0 8.00013 0C8.72956 0 9.34958 0.259259 9.86018 0.777778C10.3708 1.2963 10.6261 1.92593 10.6261 2.66667C10.6261 2.82963 10.6115 2.98163 10.5823 3.12267C10.5531 3.2637 10.5167 3.408 10.4729 3.55556Z" fill="#3BB17B"/>
</g>
</g>
<defs>
<clipPath id="clip0_15_432">
<rect width="17" height="17" fill="white"/>
</clipPath>
<clipPath id="clip1_15_432">
<rect width="17" height="17" fill="white"/>
</clipPath>
</defs>
</svg>