<svg width="18" height="17" viewBox="0 0 17 17" fill="none" xmlns="http://www.w3.org/2000/svg">
<g clip-path="url(#clip0_15_452)">
<g clip-path="url(#clip1_15_452)">
<path d="M802 -593H-830V1109H802V-593Z" fill="#DAE0E6"/>
<g filter="url(#filter0_d_15_452)">
<path d="M529.5 -336H-558.5C-563.194 -336 -567 -332.193 -567 -327.496V553.496C-567 558.193 -563.194 562 -558.5 562H529.5C534.194 562 538 558.193 538 553.496V-327.496C538 -332.193 534.194 -336 529.5 -336Z" fill="black"/>
</g>
<path d="M529.5 -336H-558.5C-563.194 -336 -567 -332.193 -567 -327.496V553.496C-567 558.193 -563.194 562 -558.5 562H529.5C534.194 562 538 558.193 538 553.496V-327.496C538 -332.193 534.194 -336 529.5 -336Z" fill="white"/>
<g filter="url(#filter1_d_15_452)">
<path d="M147.5 -163H-175.5C-180.194 -163 -184 -159.19 -184 -154.49V382.49C-184 387.19 -180.194 391 -175.5 391H147.5C152.194 391 156 387.19 156 382.49V-154.49C156 -159.19 152.194 -163 147.5 -163Z" fill="black"/>
</g>
<path d="M146.504 -163H-175.504C-180.196 -163 -184 -159.191 -184 -154.492V381.492C-184 386.191 -180.196 390 -175.504 390H146.504C151.196 390 155 386.191 155 381.492V-154.492C155 -159.191 151.196 -163 146.504 -163Z" fill="white" stroke="#C1C7CC" stroke-width="0.868418"/>
<mask id="mask0_15_452" style="mask-type:luminance" maskUnits="userSpaceOnUse" x="-183" y="-16" width="338" height="166">
<path d="M155 -16H-183V150H155V-16Z" fill="white"/>
</mask>
<g mask="url(#mask0_15_452)">
<path d="M155 -16H-14V34H155V-16Z" fill="#DAE0E6" fill-opacity="0.1" stroke="#E0E3E6" stroke-width="0.868418"/>
<rect width="16" height="16" rx="8" fill="#3BB17B"/>
<path d="M8.5 4V5H10.295L5 10.295V8.5H4V12H7.5V11H5.705L11 5.705V7.5H12V4H8.5Z" fill="#DCF2E7"/>
</g>
</g>
</g>
<defs>
<filter id="filter0_d_15_452" x="-580.026" y="-336.868" width="1131.05" height="924.053" filterUnits="userSpaceOnUse" color-interpolation-filters="sRGB">
<feFlood flood-opacity="0" result="BackgroundImageFix"/>
<feColorMatrix in="SourceAlpha" type="matrix" values="0 0 0 0 0 0 0 0 0 0 0 0 0 0 0 0 0 0 127 0" result="hardAlpha"/>
<feOffset dy="12.1578"/>
<feGaussianBlur stdDeviation="6.51313"/>
<feColorMatrix type="matrix" values="0 0 0 0 0.0411765 0 0 0 0 0.1 0 0 0 0 0.1 0 0 0 0.04 0"/>
<feBlend mode="normal" in2="BackgroundImageFix" result="effect1_dropShadow_15_452"/>
<feBlend mode="normal" in="SourceGraphic" in2="effect1_dropShadow_15_452" result="shape"/>
</filter>
<filter id="filter1_d_15_452" x="-187.474" y="-164.737" width="346.947" height="560.947" filterUnits="userSpaceOnUse" color-interpolation-filters="sRGB">
<feFlood flood-opacity="0" result="BackgroundImageFix"/>
<feColorMatrix in="SourceAlpha" type="matrix" values="0 0 0 0 0 0 0 0 0 0 0 0 0 0 0 0 0 0 127 0" result="hardAlpha"/>
<feOffset dy="1.73684"/>
<feGaussianBlur stdDeviation="1.73684"/>
<feComposite in2="hardAlpha" operator="out"/>
<feColorMatrix type="matrix" values="0 0 0 0 0.24 0 0 0 0 0.32 0 0 0 0 0.4 0 0 0 0.1 0"/>
<feBlend mode="normal" in2="BackgroundImageFix" result="effect1_dropShadow_15_452"/>
<feBlend mode="normal" in="SourceGraphic" in2="effect1_dropShadow_15_452" result="shape"/>
</filter>
<clipPath id="clip0_15_452">
<rect width="17" height="17" fill="white"/>
</clipPath>
<clipPath id="clip1_15_452">
<rect width="17" height="17" fill="white"/>
</clipPath>
</defs>
</svg>
