<svg width="83" height="106" viewBox="0 0 83 106" fill="none" xmlns="http://www.w3.org/2000/svg">
<path d="M30.3246 0.1175C28.1083 0.221069 24.4419 0.448921 22.2048 0.635353C19.947 0.801064 17.917 0.94606 17.6892 0.94606C17.0471 0.94606 16.2392 1.85747 16.2392 2.56174C16.2392 2.91387 16.4464 3.32816 16.7363 3.61815L17.2542 4.09457L21.977 3.76315C38.2788 2.60316 53.0063 2.83102 69.0181 4.46741C77.4487 5.35811 78.8572 5.68953 79.5201 6.97379C79.9136 7.7402 79.9758 9.00375 79.6236 9.64588C79.4994 9.87373 78.7329 10.7851 77.9458 11.6758C77.138 12.5458 76.2266 13.7679 75.9366 14.3894C75.3566 15.6322 75.3566 15.9222 75.8951 26.3205C76.6823 41.8352 76.6823 64.0405 75.8951 79.5552C75.3566 89.9535 75.3566 90.2435 75.9366 91.4864C76.2266 92.1078 77.138 93.3299 77.9458 94.1999C79.6651 96.1055 79.8515 96.4163 79.8722 97.4519C79.8929 99.3991 78.7537 100.186 75.2323 100.683C66.2011 101.947 52.0328 102.858 41.5101 102.858C28.2533 102.858 7.58082 101.243 4.72231 99.979C3.68662 99.5233 3.12734 98.6119 3.14806 97.4519C3.16877 96.4163 3.35519 96.1055 5.07444 94.1999C5.86157 93.3299 6.75227 92.1078 7.06297 91.5071C7.66368 90.2642 7.66368 90.2021 7.12512 79.5552C6.31728 63.6055 6.31728 42.2702 7.12512 26.3205C7.66368 15.7565 7.66368 15.6322 7.08369 14.3894C6.79369 13.7679 5.88229 12.5458 5.07444 11.6758C4.28732 10.7851 3.5209 9.87373 3.39662 9.62517C3.00306 8.9209 3.10663 7.45021 3.58305 6.76665C4.20446 5.91738 5.3023 5.54453 8.69937 5.08883C11.8064 4.65384 12.3657 4.50884 12.5936 3.92886C12.9664 2.97601 12.5729 2.04389 11.6822 1.73318C11.2057 1.56747 5.613 2.31317 4.34946 2.70673C0.703819 3.86671 -0.994718 7.61592 0.620963 10.9923C0.807388 11.3858 1.73951 12.608 2.71306 13.7265L4.49446 15.7565L4.37017 18.8635C4.28732 20.5621 4.14232 23.8349 4.01804 26.1134C3.16877 42.9123 3.2102 64.1233 4.12161 81.7301C4.28732 84.9822 4.43231 88.2136 4.43231 88.9178V90.2021L2.69235 92.1906C0.807388 94.3449 0.393111 95.0491 0.103117 96.582C-0.518299 99.834 1.7188 102.713 5.46801 103.459C8.36795 104.018 18.6835 105.054 27.114 105.592C32.3339 105.924 50.5621 105.924 55.9063 105.592C64.0882 105.075 75.0666 103.998 77.6558 103.438C80.9493 102.734 83 100.518 83 97.5969C83 95.7741 82.3372 94.4692 80.2451 92.0871L78.5258 90.14L78.6501 86.9086C78.7329 85.1479 78.8779 81.8337 79.0022 79.5552C79.3544 72.4503 79.6236 61.2441 79.6236 52.9379C79.6236 44.6316 79.3544 33.4254 79.0022 26.3205C78.8779 24.042 78.7329 20.7278 78.6501 18.9671L78.5258 15.7358L80.2451 13.7887C82.3372 11.4066 83 10.1016 83 8.27876C82.9793 5.31668 80.9493 3.12101 77.5523 2.41674C74.9837 1.8989 65.4139 0.925346 57.9777 0.428207C52.2606 0.0346451 36.0002 -0.131065 30.3246 0.1175Z" fill="#016146"/>
<path d="M32.1893 8.42365C27.5494 8.63079 21.5424 9.14863 16.5504 9.74934C12.8426 10.205 12.594 10.2465 12.159 10.785C11.5583 11.4686 11.5583 11.9657 12.159 12.67C12.739 13.3328 12.9461 13.3328 16.6125 12.8564C23.3445 11.9864 34.2814 11.3029 41.5106 11.3029C48.7397 11.3029 59.6766 11.9864 66.4086 12.8564C70.075 13.3328 70.2821 13.3328 70.8621 12.67C71.4628 11.9657 71.4628 11.4686 70.8621 10.785C70.4271 10.2465 70.1786 10.205 66.4708 9.74934C55.5131 8.40293 43.2298 7.92652 32.1893 8.42365Z" fill="#016146"/>
<path d="M12.6764 92.7501C12.1793 92.9158 11.6821 93.6615 11.6821 94.2622C11.6821 94.4279 11.8893 94.8007 12.1585 95.0907C12.6143 95.6293 12.8421 95.6707 16.6535 96.1264C32.6653 98.0735 49.1535 98.1357 64.8753 96.3336C70.1574 95.7121 70.3645 95.6707 70.8823 95.0907C71.4623 94.4072 71.4623 93.91 70.8616 93.2058C70.2816 92.5429 70.2816 92.5429 65.5382 93.1022C49.6299 95.0286 33.2867 95.0079 16.9434 93.0401C14.6442 92.7708 12.9871 92.6465 12.6764 92.7501Z" fill="#016146"/>
<path fill-rule="evenodd" clip-rule="evenodd" d="M38.0495 34.6692C39.3061 33.3193 41.3975 33.184 42.8175 34.3608L53.053 42.843C55.405 44.7922 54.1338 48.5616 51.177 48.7764L57.496 55.7986C59.5113 58.0382 57.9219 61.6067 54.909 61.6067L54.7921 61.6067L60.6446 67.677C62.7754 69.8871 61.2091 73.5728 58.1392 73.5728H25.0941C21.9642 73.5728 20.4251 69.7633 22.6766 67.5891L28.8716 61.6067H28.1122C25.0993 61.6067 23.5098 58.0383 25.5252 55.7986L31.8675 48.7504C29.363 48.3847 28.1717 45.2804 29.9877 43.3296L38.0495 34.6692ZM50.9103 48.786L50.9105 48.786C50.9104 48.786 50.9103 48.786 50.9103 48.786ZM50.5879 45.3202L40.5968 37.0404L32.8683 45.3428C35.3429 45.7124 36.5385 48.7624 34.7754 50.7217L28.1122 58.1265H28.8716C32.0015 58.1265 33.5406 61.936 31.2891 64.1102L25.0941 70.0926H58.1392L52.2866 64.0222C50.1558 61.8122 51.7221 58.1265 54.7921 58.1265H54.909L48.4146 50.9093C46.5435 48.83 47.8931 45.5634 50.5879 45.3202Z" fill="#016146"/>
</svg>
