<svg width="116" height="100" viewBox="0 0 116 100" fill="none" xmlns="http://www.w3.org/2000/svg">
<path d="M2.00914 0.475105C1.55666 0.723976 0.945804 1.3122 0.65169 1.74206L0.0860863 2.57915L0.0182138 17.1717C-0.0270345 25.2033 0.0182138 32.1263 0.0860863 32.5335C0.244455 33.4385 1.42091 34.8186 2.39375 35.2032C2.91411 35.4294 4.24893 35.5199 6.98646 35.5199H10.8326V49.9994V64.4789H6.98646C4.24893 64.4789 2.91411 64.5694 2.39375 64.7956C1.42091 65.1802 0.244455 66.5603 0.0860863 67.4652C0.0182138 67.8725 -0.0270345 74.7955 0.0182138 82.827L0.0860863 97.4196L0.65169 98.2567C0.945804 98.7092 1.57928 99.2748 2.03176 99.5237L2.86886 99.9988H52.4384C106.51 99.9988 102.551 100.089 103.863 98.7092C104.202 98.3698 104.587 97.7816 104.7 97.4423C104.859 97.0124 104.949 92.0125 104.949 82.3293V67.8725H108.75C113.592 67.8499 114.542 67.5105 115.469 65.3159C115.763 64.6146 115.809 62.5332 115.809 49.9541C115.809 36.3118 115.763 35.3389 115.379 34.5018C114.451 32.4657 113.478 32.1263 108.705 32.1263H104.949L104.904 17.3527L104.836 2.57915L104.27 1.74206C103.976 1.28958 103.343 0.723976 102.89 0.475105L102.053 0H52.4384C2.84624 0 2.80099 0 2.00914 0.475105ZM101.51 6.04065L101.578 8.59718H67.2798H32.9816L32.4386 9.16279C31.7373 9.84151 31.7147 10.7691 32.3708 11.4705C32.8459 11.9908 32.8685 11.9908 39.0449 11.9908H45.2213V17.76V23.5291H29.7237H14.2262V17.76V11.9908H20.1311C23.8415 11.9908 26.1944 11.9003 26.4659 11.7419C27.5518 11.1763 27.4387 9.25328 26.2849 8.8008C25.9681 8.68768 20.7646 8.59718 14.5429 8.59718H3.36659V6.15377C3.36659 4.79633 3.43446 3.61987 3.52496 3.55199C3.59283 3.46149 25.674 3.41625 52.5515 3.43887L101.442 3.50674L101.51 6.04065ZM10.8326 17.76V23.5291H7.09958H3.36659V17.76V11.9908H7.09958H10.8326V17.76ZM56.0809 17.76V23.5291L52.4158 23.4839L48.728 23.416L48.6602 17.9862C48.6375 14.9998 48.6602 12.4433 48.7054 12.2849C48.7959 12.0587 49.7235 11.9908 52.461 11.9908H56.0809V17.76ZM90.6959 17.76V23.5291H75.1983H59.7008V17.76V11.9908H75.1983H90.6959V17.76ZM101.555 17.76V23.5291H97.8225H94.0895V17.76V11.9908H97.8225H101.555V17.76ZM101.555 29.5245V32.1263L52.5289 32.0811L3.47971 32.0132L3.41184 29.4567L3.34397 26.9228H52.461H101.555V29.5245ZM112.053 35.6557C112.347 35.7688 112.415 36.2213 112.415 38.3706V40.9497H63.3206H14.2262V38.2348V35.5199H62.9586C89.7683 35.5199 111.849 35.5878 112.053 35.6557ZM21.6922 49.9994V55.6554H17.9592H14.2262V49.9994V44.3434H17.9592H21.6922V49.9994ZM56.0809 49.9994V55.6554H40.5833H25.0858V49.9994V44.3434H40.5833H56.0809V49.9994ZM67.1667 49.9994V55.6554H63.4337H59.7008V49.9994V44.3434H63.4337H67.1667V49.9994ZM101.555 49.9994V55.6554H86.0579H70.5603V49.9994V44.3434H86.0579H101.555V49.9994ZM112.415 49.9994V55.6554H108.682H104.949V49.9994V44.3434H108.682H112.415V49.9994ZM112.415 61.6282C112.415 63.7775 112.347 64.23 112.053 64.3431C111.849 64.411 89.7683 64.4789 62.9586 64.4789H14.2262V61.764V59.0491H63.3206H112.415V61.6282ZM101.555 70.4743V73.0534L90.2207 73.1213L78.886 73.1892L78.4562 73.7321C77.8906 74.4335 77.9132 75.2932 78.5241 75.9493C78.9992 76.4697 79.0444 76.4697 84.8588 76.4697H90.6959V82.2388V88.008H75.1983H59.7008V82.2388V76.4697H66.126H72.5739L73.0264 75.8814C73.2979 75.5421 73.5015 75.1348 73.5015 74.9765C73.5015 74.3882 72.9811 73.5738 72.4382 73.3249C72.0535 73.1439 62.2573 73.076 37.6422 73.076H3.36659V70.6326C3.36659 69.2752 3.43446 68.0987 3.52496 68.0308C3.59283 67.9403 25.6966 67.8725 52.6194 67.8725H101.555V70.4743ZM10.8326 82.2388V88.008H7.09958H3.36659V82.2388V76.4697H7.09958H10.8326V82.2388ZM45.2213 82.2388V88.008H29.7237H14.2262V82.2388V76.4697H29.7237H45.2213V82.2388ZM56.0809 82.2388V88.008L52.4158 87.9627L48.728 87.8949L48.6602 82.4651C48.6375 79.4787 48.6602 76.9221 48.7054 76.7638C48.7959 76.5375 49.7235 76.4697 52.461 76.4697H56.0809V82.2388ZM101.555 82.2388V88.008H97.8225H94.0895V82.2388V76.4697H97.8225H101.555V82.2388ZM101.51 93.9355L101.442 96.492H52.461H3.47971L3.41184 93.9355L3.34397 91.4016H52.461H101.578L101.51 93.9355Z" fill="#016146"/>
</svg>
