<svg width="102" height="60" viewBox="0 0 102 60" fill="none" xmlns="http://www.w3.org/2000/svg">
<g clip-path="url(#clip0_4_727)">
<path fill-rule="evenodd" clip-rule="evenodd" d="M50.5 0L58.4854 7.98039L66.4899 15.9412H57.1704L60.963 19.7255L71.407 30.1569H61.1345L63.25 32.2745L76 45H50.5H25L37.75 32.2745L39.8655 30.1569H29.5931L40.037 19.7255L43.8296 15.9412H34.5101L42.5146 7.98039L50.5 0Z" fill="#006747"/>
<path fill-rule="evenodd" clip-rule="evenodd" d="M0 59H102V60H0V59Z" fill="#878787"/>
<path d="M0.0201925 49.4406L0 50.7722L0.262496 50.7121C0.35336 50.6921 0.444225 50.6821 0.545185 50.6721C0.646145 50.6621 0.737009 50.6521 0.817777 50.6521C0.898545 50.6421 0.979313 50.6421 1.03989 50.6421V55.5482C0.979313 55.5482 0.898545 55.5482 0.807681 55.5382C0.716817 55.5382 0.625953 55.5282 0.524993 55.5181C0.424033 55.5081 0.333169 55.4981 0.242304 55.4781L0 55.438L0.0201925 56.7697L2.07978 56.7397L3.92735 56.7697L3.94754 55.4581L3.70524 55.4881C3.61437 55.4981 3.5437 55.5081 3.47303 55.5181C3.41245 55.5282 3.34178 55.5282 3.2913 55.5382C3.23072 55.5482 3.17015 55.5482 3.10957 55.5482V53.9362L3.23072 53.9562C3.40236 53.9862 3.57399 54.0463 3.72543 54.1364C3.87687 54.2265 4.02831 54.3367 4.15956 54.4568C4.2908 54.587 4.42205 54.7272 4.5432 54.8874C4.66436 55.0375 4.77541 55.2078 4.87637 55.368C4.99753 55.5682 5.11868 55.7584 5.23983 55.9487C5.36098 56.1389 5.49223 56.3091 5.63357 56.4593C5.77492 56.6095 5.93645 56.7397 6.11818 56.8298C6.29991 56.9199 6.51193 56.97 6.76433 56.97C6.94606 56.97 7.12778 56.9499 7.30951 56.9099C7.49124 56.8698 7.67297 56.8198 7.8446 56.7597L7.81431 54.7171C7.70326 54.7572 7.6023 54.7872 7.51143 54.8173C7.42057 54.8473 7.3297 54.8673 7.23884 54.8673C7.10759 54.8673 6.97634 54.8273 6.85519 54.7572C6.73404 54.6871 6.60279 54.607 6.48164 54.4969C6.35039 54.3867 6.21914 54.2866 6.0677 54.1665C5.91626 54.0563 5.74463 53.9462 5.55281 53.8561C5.36098 53.766 5.13887 53.6959 4.88647 53.6558C5.23983 53.6058 5.55281 53.5257 5.84559 53.4155C6.13837 53.2954 6.38068 53.1452 6.59269 52.965C6.80471 52.7847 6.96625 52.5645 7.0773 52.3242C7.18836 52.0839 7.24894 51.8135 7.24894 51.5031C7.24894 51.1627 7.17826 50.8623 7.04701 50.592C6.91577 50.3217 6.72394 50.0914 6.48164 49.9011C6.23934 49.7109 5.94655 49.5607 5.60329 49.4606C5.27012 49.3605 4.88647 49.3104 4.47253 49.3104C4.46244 49.3104 4.42205 49.3104 4.36148 49.3104C4.3009 49.3104 4.21004 49.3104 4.10908 49.3204C4.00812 49.3204 3.89706 49.3204 3.786 49.3304C3.67495 49.3304 3.56389 49.3404 3.46293 49.3404C3.36197 49.3404 3.2812 49.3504 3.21053 49.3504C3.13986 49.3504 3.10957 49.3504 3.09948 49.3504L0.0201925 49.4406ZM3.09948 50.602C3.20044 50.602 3.2913 50.602 3.39226 50.592C3.49322 50.592 3.58408 50.582 3.68504 50.582C4.16965 50.582 4.5432 50.6821 4.78551 50.8723C5.02781 51.0626 5.15906 51.3429 5.15906 51.6934C5.15906 52.0939 5.02781 52.3842 4.78551 52.5745C4.53311 52.7647 4.17975 52.8648 3.69514 52.8548C3.59418 52.8548 3.49322 52.8548 3.39226 52.8448C3.2913 52.8448 3.19034 52.8348 3.08938 52.8348V50.602H3.09948ZM15.6791 49.3404C15.6791 49.3404 15.6286 49.3404 15.5479 49.3504C15.457 49.3504 15.3459 49.3605 15.1945 49.3705C15.0431 49.3805 14.8714 49.3805 14.6897 49.3905C14.4979 49.4005 14.306 49.4005 14.094 49.4105C13.8921 49.4205 13.6801 49.4205 13.4883 49.4305C13.2864 49.4406 13.1046 49.4406 12.933 49.4506C12.7614 49.4506 12.62 49.4606 12.4989 49.4606H11.2671C11.146 49.4606 11.0047 49.4606 10.833 49.4506C10.6614 49.4406 10.4797 49.4406 10.2777 49.4305C10.0758 49.4205 9.8739 49.4205 9.67198 49.4105C9.47006 49.4005 9.26814 49.4005 9.07631 49.3905C8.88449 49.3805 8.71286 49.3705 8.57151 49.3705C8.42007 49.3605 8.30902 49.3605 8.21815 49.3504C8.12729 49.3504 8.0869 49.3404 8.0869 49.3404L7.82441 52.2541L9.05612 52.3642C9.08641 52.0438 9.14699 51.7735 9.23785 51.5532C9.32871 51.3329 9.44987 51.1627 9.6114 51.0325C9.76284 50.9024 9.94457 50.8123 10.1566 50.7522C10.3686 50.6921 10.6008 50.6721 10.8633 50.6721V55.5582C10.8027 55.5582 10.7422 55.5582 10.6816 55.5482C10.621 55.5482 10.5604 55.5382 10.4898 55.5282C10.4191 55.5181 10.3484 55.5081 10.2575 55.4881L10.0152 55.4481L10.0657 56.7797L11.8931 56.7497L13.7205 56.7797L13.771 55.4481L13.5287 55.4881C13.4378 55.5081 13.3671 55.5181 13.2964 55.5282C13.2258 55.5382 13.1652 55.5382 13.1046 55.5482C13.044 55.5482 12.9835 55.5582 12.9229 55.5582V50.6721C13.1854 50.6721 13.4176 50.7021 13.6296 50.7522C13.8416 50.8123 14.0234 50.9024 14.1748 51.0325C14.3262 51.1627 14.4575 51.3329 14.5484 51.5532C14.6392 51.7735 14.6998 52.0438 14.7301 52.3642L15.9618 52.2541L15.6791 49.3404ZM24.4222 49.4406L22.9785 49.4606L21.4338 49.4406L21.3127 50.7322C21.3632 50.7222 21.4136 50.7222 21.4641 50.7121C21.5146 50.7121 21.555 50.7021 21.5853 50.7021C21.6156 50.7021 21.6357 50.7021 21.6458 50.7121C21.6559 50.7222 21.666 50.7322 21.666 50.7522C21.666 50.7822 21.6458 50.8223 21.6055 50.8723C21.5651 50.9224 21.5247 50.9725 21.4641 51.0325C21.4136 51.0926 21.3531 51.1527 21.2925 51.2028L20.2021 52.2741H19.3742V50.6721C19.4348 50.6721 19.4954 50.6721 19.556 50.6821C19.6165 50.6821 19.6771 50.6921 19.7377 50.7021C19.8084 50.7121 19.879 50.7222 19.9699 50.7322L20.2122 50.7622L20.293 49.4506L18.3344 49.4806L16.2748 49.4506L16.2546 50.7822L16.4969 50.7422C16.5877 50.7222 16.6887 50.7121 16.7796 50.7021C16.8805 50.6921 16.9714 50.6821 17.0623 50.6821C17.1531 50.6821 17.2339 50.6821 17.2945 50.6821V55.5582C17.2339 55.5582 17.1531 55.5582 17.0623 55.5482C16.9714 55.5482 16.8805 55.5382 16.7796 55.5282C16.6786 55.5181 16.5877 55.5081 16.4969 55.4881L16.2546 55.4481L16.2748 56.7797L18.3344 56.7497L20.293 56.7797L20.2122 55.4781L19.9699 55.5081C19.879 55.5181 19.8084 55.5282 19.7377 55.5282C19.667 55.5382 19.6065 55.5382 19.556 55.5382C19.4954 55.5382 19.4348 55.5382 19.3742 55.5382V53.5056H19.5762C19.6771 53.5056 19.7579 53.5357 19.8286 53.5857C19.8992 53.6458 19.9699 53.7259 20.0507 53.836L21.4136 55.7384C21.5651 55.9587 21.7064 56.1389 21.8377 56.2991C21.9689 56.4493 22.1103 56.5795 22.2516 56.6796C22.393 56.7797 22.5646 56.8498 22.7463 56.8999C22.928 56.9499 23.1502 56.97 23.4026 56.97C23.6045 56.97 23.7963 56.9499 23.9881 56.9199C24.1799 56.8899 24.3516 56.8398 24.5131 56.7797L24.4828 54.7372C24.3819 54.7672 24.291 54.7972 24.2102 54.8173C24.1295 54.8373 24.0487 54.8573 23.978 54.8573C23.9074 54.8573 23.8266 54.8373 23.7357 54.8073C23.655 54.7672 23.5641 54.7071 23.4631 54.617L21.2319 52.995L22.9482 51.2929C23.0694 51.1727 23.1804 51.0726 23.3016 50.9825C23.4126 50.8924 23.5338 50.8223 23.655 50.7822C23.7761 50.7322 23.9074 50.7121 24.0487 50.7121C24.1194 50.7121 24.1799 50.7121 24.2506 50.7222C24.3213 50.7322 24.3819 50.7422 24.4424 50.7522L24.4222 49.4406ZM36.8706 49.3404C36.8706 49.3404 36.8201 49.3404 36.7394 49.3504C36.6485 49.3504 36.5375 49.3605 36.386 49.3705C36.2346 49.3805 36.063 49.3805 35.8812 49.3905C35.6894 49.4005 35.4976 49.4005 35.2856 49.4105C35.0836 49.4205 34.8716 49.4205 34.6798 49.4305C34.4779 49.4406 34.2961 49.4406 34.1245 49.4506C33.9529 49.4506 33.8115 49.4606 33.6904 49.4606H32.4587C32.3375 49.4606 32.1962 49.4606 32.0245 49.4506C31.8529 49.4406 31.6712 49.4406 31.4693 49.4305C31.2673 49.4205 31.0654 49.4205 30.8635 49.4105C30.6616 49.4005 30.4597 49.4005 30.2678 49.3905C30.076 49.3805 29.9044 49.3705 29.763 49.3705C29.6116 49.3605 29.5005 49.3605 29.4097 49.3504C29.3188 49.3504 29.2784 49.3404 29.2784 49.3404L29.0159 52.2541L30.2476 52.3642C30.2779 52.0438 30.3385 51.7735 30.4294 51.5532C30.5202 51.3329 30.6414 51.1627 30.8029 51.0325C30.9544 50.9024 31.1361 50.8123 31.3481 50.7522C31.5601 50.6921 31.7923 50.6721 32.0548 50.6721V55.5582C31.9943 55.5582 31.9337 55.5582 31.8731 55.5482C31.8125 55.5482 31.752 55.5382 31.6813 55.5282C31.6106 55.5181 31.5399 55.5081 31.4491 55.4881L31.2068 55.4481L31.2572 56.7797L33.0846 56.7497L34.912 56.7797L34.9625 55.4481L34.7202 55.4881C34.6293 55.5081 34.5586 55.5181 34.488 55.5282C34.4173 55.5382 34.3567 55.5382 34.2961 55.5482C34.2356 55.5482 34.175 55.5582 34.1144 55.5582V50.6721C34.3769 50.6721 34.6091 50.7021 34.8211 50.7522C35.0332 50.8123 35.2149 50.9024 35.3663 51.0325C35.5178 51.1627 35.649 51.3329 35.7399 51.5532C35.8307 51.7735 35.8913 52.0438 35.9216 52.3642L37.1533 52.2541L36.8706 49.3404ZM41.6057 49.4305L39.5461 49.4606L37.4865 49.4305L37.4663 50.7722L37.7086 50.7322C37.7995 50.7121 37.9004 50.7021 37.9913 50.6921C38.0922 50.6821 38.1831 50.6721 38.274 50.6721C38.3648 50.6721 38.4456 50.6721 38.5062 50.6721V55.5682C38.4456 55.5682 38.3648 55.5682 38.274 55.5582C38.1831 55.5582 38.0922 55.5482 37.9913 55.5382C37.8903 55.5282 37.7995 55.5181 37.7086 55.4981L37.4663 55.4581L37.4865 56.7997L39.5461 56.7697L41.6057 56.7997L41.6259 55.4581L41.3835 55.4981C41.2927 55.5181 41.2018 55.5282 41.1009 55.5382C40.9999 55.5482 40.909 55.5482 40.8182 55.5582C40.7273 55.5582 40.6465 55.5682 40.586 55.5682V50.6721C40.6465 50.6721 40.7273 50.6721 40.8182 50.6721C40.909 50.6721 40.9999 50.6821 41.1009 50.6921C41.2018 50.7021 41.2927 50.7121 41.3835 50.7322L41.6259 50.7722L41.6057 49.4305ZM52.3074 49.4305L50.2478 49.4606L49.6522 49.4406L46.9464 53.9262L44.2609 49.4305L42.8172 49.4606L41.9893 49.4305L41.9691 50.7422L42.2114 50.7121C42.3023 50.7021 42.373 50.6921 42.4436 50.6821C42.5143 50.6721 42.5749 50.6721 42.6355 50.6621C42.696 50.6521 42.7566 50.6521 42.8071 50.6521V55.5382C42.7465 55.5382 42.6859 55.5382 42.6355 55.5282C42.5749 55.5282 42.5143 55.5181 42.4436 55.5081C42.373 55.4981 42.3023 55.4881 42.2114 55.4781L41.9691 55.4481L41.9893 56.7597L43.433 56.7397L44.6647 56.7597L44.6849 55.4681L44.4426 55.4881C44.372 55.4981 44.3215 55.4981 44.2912 55.5081C44.2609 55.5181 44.2306 55.5181 44.2104 55.5181C44.1902 55.5181 44.17 55.5282 44.1499 55.5282C44.1297 55.5282 44.0994 55.5282 44.0489 55.5282V53.0651L46.371 56.9599H46.5224L49.208 52.5044V55.5282C49.1474 55.5282 49.0868 55.5282 49.0363 55.5181C48.9757 55.5181 48.9152 55.5081 48.8445 55.4981C48.7738 55.4881 48.7032 55.4781 48.6123 55.4681L48.37 55.438L48.3902 56.7497L50.2378 56.7297L52.2973 56.7497L52.3175 55.418L52.0752 55.4581C51.9844 55.4781 51.8935 55.4881 51.7925 55.4981C51.6916 55.5081 51.6007 55.5081 51.5098 55.5181C51.419 55.5181 51.3382 55.5282 51.2776 55.5282V50.6421C51.3382 50.6421 51.419 50.6421 51.5098 50.6421C51.6007 50.6421 51.6916 50.6521 51.7925 50.6621C51.8935 50.6721 51.9844 50.6821 52.0752 50.7021L52.3175 50.7422L52.3074 49.4305ZM56.366 52.4243L55.8007 52.4143V50.612L56.2651 50.602C56.5982 50.602 56.8809 50.622 57.103 50.6821C57.3252 50.7322 57.4867 50.8223 57.5977 50.9524C57.7088 51.0726 57.7593 51.2528 57.7593 51.4631C57.7593 51.6934 57.7189 51.8836 57.628 52.0238C57.5372 52.164 57.3857 52.2741 57.1838 52.3342C56.9718 52.3842 56.6992 52.4243 56.366 52.4243ZM56.4165 53.6058C56.7901 53.6058 57.103 53.6458 57.3453 53.7359C57.5876 53.816 57.7694 53.9362 57.8905 54.0763C58.0117 54.2265 58.0622 54.3867 58.0622 54.577C58.0622 54.7772 58.0016 54.9574 57.8905 55.1176C57.7694 55.2778 57.5876 55.408 57.3453 55.4981C57.103 55.5882 56.7901 55.6383 56.4165 55.6383L55.8007 55.6283V53.6158L56.4165 53.6058ZM52.7113 49.4406L52.6911 50.7722L52.9536 50.7121C53.0444 50.6921 53.1353 50.6821 53.2363 50.6721C53.3372 50.6621 53.4281 50.6521 53.5089 50.6521C53.5896 50.6421 53.6704 50.6421 53.731 50.6421V55.5782C53.6704 55.5782 53.5896 55.5782 53.5089 55.5682C53.418 55.5582 53.3271 55.5582 53.2363 55.5482C53.1353 55.5382 53.0444 55.5282 52.9536 55.5081L52.6911 55.4481L52.7113 56.7797L57.2343 56.8798C57.8602 56.8798 58.3852 56.7797 58.8093 56.5995C59.2333 56.4193 59.5564 56.1589 59.7785 55.8185C60.0006 55.4881 60.1116 55.0876 60.1116 54.637C60.1116 54.3567 60.0511 54.1064 59.9198 53.8761C59.7886 53.6458 59.6068 53.4456 59.3746 53.2753C59.1424 53.1051 58.8597 52.965 58.5266 52.8548C58.7992 52.6846 59.0112 52.4643 59.1626 52.214C59.3141 51.9637 59.3847 51.6733 59.3948 51.363C59.3948 50.8924 59.2838 50.5019 59.0819 50.2015C58.8698 49.9011 58.5569 49.6809 58.1429 49.5407C57.729 49.4005 57.2242 49.3304 56.6184 49.3304L52.7113 49.4406ZM67.3202 49.2403C67.3202 49.2403 67.2697 49.2403 67.1688 49.2503C67.0678 49.2603 66.9366 49.2603 66.7649 49.2703C66.5933 49.2804 66.3914 49.2904 66.1794 49.3004C65.9572 49.3104 65.725 49.3204 65.4827 49.3404C65.2404 49.3504 64.988 49.3705 64.7457 49.3805C64.5034 49.3905 64.2611 49.4005 64.039 49.4105C63.8169 49.4205 63.615 49.4305 63.4433 49.4305C63.2717 49.4406 63.1304 49.4406 63.0193 49.4406H60.5559L60.5054 50.7822L60.7477 50.7422C60.8386 50.7222 60.9092 50.7121 60.9799 50.7021C61.0506 50.6921 61.1112 50.6821 61.1717 50.6821C61.2323 50.6721 61.2929 50.6721 61.3535 50.6721V55.5682C61.2929 55.5682 61.2323 55.5682 61.1818 55.5582C61.1212 55.5482 61.0607 55.5482 60.99 55.5382C60.9193 55.5282 60.8487 55.5181 60.7578 55.4981L60.5155 55.4581L60.566 56.7897H63.0092C63.1102 56.7897 63.2616 56.7897 63.4433 56.7997C63.6251 56.8098 63.8371 56.8098 64.0794 56.8198C64.3217 56.8298 64.5741 56.8398 64.8366 56.8498C65.0991 56.8598 65.3717 56.8698 65.6342 56.8899C65.8967 56.8999 66.1491 56.9199 66.3914 56.9299C66.6337 56.9399 66.8457 56.9499 67.0375 56.9599C67.2293 56.97 67.3707 56.98 67.4817 56.98C67.5928 56.99 67.6433 56.99 67.6433 56.99L67.9058 53.9662L66.4822 53.826C66.4317 54.1464 66.351 54.4168 66.25 54.627C66.1491 54.8373 66.0279 55.0075 65.8866 55.1377C65.7452 55.2678 65.5837 55.3579 65.402 55.418C65.2202 55.4781 65.0183 55.5181 64.8063 55.5382C64.5842 55.5582 64.352 55.5682 64.0996 55.5582H63.413V53.5156C63.5948 53.5156 63.7462 53.5557 63.8775 53.6158C64.0087 53.6859 64.1198 53.776 64.2207 53.8861C64.3217 53.9962 64.4126 54.1264 64.4933 54.2666C64.5741 54.4068 64.6649 54.5569 64.7558 54.7171L65.2505 54.5169V51.9036L64.7558 51.5932C64.6649 51.7434 64.5842 51.8936 64.5034 52.0238C64.4226 52.1539 64.3318 52.2741 64.2308 52.3742C64.1299 52.4743 64.0188 52.5544 63.8876 52.6045C63.7563 52.6646 63.5948 52.6846 63.413 52.6946V50.6521H64.039C64.2813 50.6521 64.5135 50.6621 64.7053 50.6721C64.9073 50.6921 65.089 50.7222 65.2404 50.7722C65.402 50.8223 65.5332 50.9024 65.6544 51.0025C65.7755 51.1026 65.8664 51.2428 65.9471 51.423C66.0279 51.5932 66.0885 51.8235 66.1289 52.0839L67.5524 51.9437L67.3202 49.2403ZM68.35 49.4406L68.3298 50.7822L68.5923 50.7222C68.6832 50.7021 68.774 50.6921 68.875 50.6821C68.9759 50.6721 69.0668 50.6621 69.1476 50.6621C69.2283 50.6521 69.3091 50.6521 69.3697 50.6521V55.5582C69.3091 55.5582 69.2283 55.5582 69.1375 55.5482C69.0466 55.5482 68.9557 55.5382 68.8548 55.5282C68.7538 55.5181 68.663 55.5081 68.5721 55.4881L68.3298 55.4481L68.35 56.7797L70.4096 56.7497L72.2571 56.7797L72.2773 55.4681L72.035 55.4981C71.9442 55.5081 71.8735 55.5181 71.8028 55.5282C71.7422 55.5382 71.6716 55.5382 71.6211 55.5482C71.5605 55.5582 71.5 55.5582 71.4394 55.5582V53.9462L71.5605 53.9662C71.7322 53.9962 71.9038 54.0563 72.0552 54.1464C72.2067 54.2365 72.3581 54.3467 72.4894 54.4668C72.6206 54.597 72.7519 54.7372 72.873 54.8974C72.9942 55.0476 73.1052 55.2178 73.2062 55.378C73.3273 55.5782 73.4485 55.7685 73.5696 55.9587C73.6908 56.1489 73.822 56.3191 73.9634 56.4693C74.1047 56.6195 74.2663 56.7497 74.448 56.8398C74.6297 56.9299 74.8417 56.98 75.0941 56.98C75.2759 56.98 75.4576 56.9599 75.6393 56.9199C75.821 56.8798 76.0028 56.8298 76.1744 56.7697L76.1441 54.7272C76.0331 54.7672 75.9321 54.7972 75.8412 54.8273C75.7504 54.8573 75.6595 54.8773 75.5686 54.8773C75.4374 54.8773 75.3061 54.8373 75.185 54.7672C75.0638 54.6971 74.9326 54.617 74.8114 54.5069C74.6802 54.3967 74.5489 54.2966 74.3975 54.1765C74.2461 54.0663 74.0744 53.9562 73.8826 53.8661C73.6908 53.776 73.4687 53.7059 73.2163 53.6658C73.5696 53.6158 73.8826 53.5357 74.1754 53.4255C74.4682 53.3054 74.7105 53.1552 74.9225 52.975C75.1345 52.7947 75.2961 52.5745 75.4071 52.3342C75.5182 52.0939 75.5787 51.8235 75.5787 51.5131C75.5787 51.1727 75.5081 50.8723 75.3768 50.602C75.2456 50.3317 75.0537 50.1014 74.8114 49.9111C74.5691 49.7209 74.2764 49.5707 73.9331 49.4706C73.5999 49.3705 73.2163 49.3204 72.8023 49.3204C72.7922 49.3204 72.7519 49.3204 72.6913 49.3204C72.6307 49.3204 72.5398 49.3204 72.4389 49.3304C72.3379 49.3304 72.2269 49.3304 72.1158 49.3404C72.0048 49.3404 71.8937 49.3504 71.7927 49.3504C71.6918 49.3504 71.611 49.3605 71.5403 49.3605C71.4697 49.3605 71.4394 49.3605 71.4293 49.3605L68.35 49.4406ZM71.4394 50.602C71.5403 50.602 71.6312 50.602 71.7322 50.592C71.8331 50.592 71.924 50.582 72.0249 50.582C72.5096 50.582 72.8831 50.6821 73.1254 50.8723C73.3677 51.0626 73.499 51.3429 73.499 51.6934C73.499 52.0939 73.3677 52.3842 73.1254 52.5745C72.873 52.7647 72.5196 52.8648 72.035 52.8548C71.9341 52.8548 71.8331 52.8548 71.7322 52.8448C71.6312 52.8448 71.5302 52.8348 71.4293 52.8348V50.602H71.4394ZM84.2815 49.4406L82.4541 49.4706L80.6267 49.4406L80.5763 50.7822L80.8186 50.7422C80.9094 50.7222 80.9801 50.7121 81.0508 50.7021C81.1215 50.6921 81.182 50.6821 81.2426 50.6821C81.3032 50.6821 81.3637 50.6821 81.4243 50.6821V55.5682C81.3637 55.5682 81.3032 55.5682 81.2527 55.5582C81.1921 55.5482 81.1315 55.5482 81.0609 55.5382C80.9902 55.5282 80.9195 55.5181 80.8287 55.4981L80.5864 55.4581L80.6368 56.7897H83.0801C83.181 56.7897 83.3224 56.7897 83.494 56.7997C83.6656 56.8098 83.8676 56.8098 84.0796 56.8198C84.3017 56.8298 84.5339 56.8398 84.7661 56.8498C85.0084 56.8598 85.2507 56.8698 85.493 56.8899C85.7353 56.8999 85.9574 56.9199 86.1796 56.9299C86.3916 56.9399 86.5834 56.9499 86.755 56.9599C86.9267 56.97 87.0579 56.98 87.1488 56.98C87.2497 56.99 87.2901 56.99 87.3002 56.99L87.5627 53.9762L86.3411 53.8761C86.3108 54.2065 86.2401 54.4768 86.1392 54.6871C86.0382 54.8974 85.907 55.0676 85.7353 55.1877C85.5738 55.3079 85.3719 55.398 85.1498 55.4481C84.9276 55.4981 84.6752 55.5382 84.3926 55.5482C84.1099 55.5582 83.807 55.5682 83.4839 55.5682V50.6721C83.5445 50.6721 83.6051 50.6721 83.6656 50.6721C83.7262 50.6721 83.7868 50.6821 83.8575 50.6921C83.9281 50.7021 84.0089 50.7121 84.0897 50.7322L84.332 50.7722L84.2815 49.4406ZM91.066 49.4406H89.4507L89.1478 50.6821L87.906 50.6621L87.8858 51.9537L88.1281 51.9337C88.2189 51.9237 88.3199 51.9237 88.4411 51.9136C88.5622 51.9036 88.6733 51.9036 88.7742 51.8936C88.8853 51.8936 88.966 51.8836 89.0266 51.8836V55.1877C89.0266 55.4481 89.067 55.6783 89.1478 55.8686C89.2285 56.0588 89.3295 56.219 89.4708 56.3492C89.6021 56.4793 89.7636 56.5795 89.9353 56.6596C90.1069 56.7397 90.2886 56.7897 90.4905 56.8198C90.6824 56.8498 90.8742 56.8698 91.066 56.8698C91.2982 56.8698 91.5203 56.8498 91.7122 56.8198C91.9141 56.7897 92.0857 56.7397 92.2271 56.6896L92.1968 55.4681C92.0857 55.4681 91.9646 55.4581 91.8434 55.438C91.7122 55.418 91.6011 55.388 91.48 55.3379C91.3689 55.2879 91.2679 55.2078 91.1973 55.1176C91.1266 55.0175 91.0862 54.8974 91.0862 54.7372V51.8936C91.1367 51.8936 91.1973 51.8936 91.2881 51.8936C91.3689 51.8936 91.4598 51.9036 91.5607 51.9036C91.6617 51.9136 91.7525 51.9136 91.8535 51.9136C91.9444 51.9237 92.0251 51.9237 92.0958 51.9337L92.3381 51.9537L92.3179 50.6621L91.0761 50.6821L91.066 49.4406ZM99.2236 49L98.0928 49.03L96.0333 49L95.9828 50.1014L96.2655 50.1114C96.3563 50.1114 96.4573 50.1214 96.5583 50.1214C96.6592 50.1214 96.7501 50.1314 96.8409 50.1314C96.9318 50.1314 97.0025 50.1314 97.0731 50.1314V51.0726L95.0035 50.6421C94.2664 50.6421 93.7112 50.9024 93.3275 51.423C92.9439 51.9437 92.7521 52.7046 92.7521 53.7259C92.7521 54.3967 92.8429 54.9675 93.0145 55.428C93.1862 55.8886 93.4386 56.239 93.7718 56.4793C94.1049 56.7196 94.5189 56.8398 95.0035 56.8398L97.4871 56.0788L97.901 56.7797L99.9606 56.8098L99.9808 55.428L99.7183 55.4881C99.6274 55.5081 99.5568 55.5181 99.4962 55.5282C99.4356 55.5382 99.375 55.5482 99.3145 55.5482C99.264 55.5582 99.2034 55.5582 99.1428 55.5582V50.2315C99.1428 50.1014 99.1529 49.9712 99.1731 49.8411C99.1933 49.7109 99.2034 49.5707 99.2236 49.4305C99.2135 49.2904 99.2135 49.1502 99.2236 49ZM94.741 53.7259C94.741 53.2954 94.7813 52.9549 94.8621 52.7046C94.9429 52.4543 95.064 52.2741 95.2256 52.164C95.3871 52.0538 95.589 52.0038 95.8212 52.0038L97.053 52.204V55.378L95.8212 55.5782C95.589 55.5782 95.3871 55.5181 95.2256 55.388C95.064 55.2578 94.9429 55.0576 94.8621 54.7872C94.7813 54.5069 94.741 54.1564 94.741 53.7259ZM102 56.179C102 56.0388 101.97 55.9186 101.899 55.7885C101.838 55.6683 101.737 55.5582 101.616 55.4781C101.495 55.398 101.344 55.3579 101.172 55.3579C101.031 55.3579 100.91 55.388 100.778 55.4581C100.657 55.5181 100.546 55.6183 100.476 55.7384C100.395 55.8586 100.354 56.0088 100.354 56.179C100.354 56.3191 100.385 56.4393 100.455 56.5695C100.516 56.6896 100.617 56.7997 100.738 56.8798C100.859 56.9599 101.011 57 101.182 57C101.324 57 101.445 56.97 101.576 56.8999C101.697 56.8398 101.808 56.7397 101.889 56.6195C101.95 56.4894 101.99 56.3492 102 56.179Z" fill="#878787"/>
</g>
<defs>
<clipPath id="clip0_4_727">
<rect width="102" height="60" fill="white"/>
</clipPath>
</defs>
</svg>
